<svg width="33" height="20" viewBox="0 0 33 20" fill="none" xmlns="http://www.w3.org/2000/svg">
<path fill-rule="evenodd" clip-rule="evenodd" d="M30.3515 18H10.0493L3.0824 10L10.0493 2H30.3515V18ZM31.6034 0H9.39578C8.9864 0 8.60207 0.16 8.36796 0.429L0.529763 9.429C0.230557 9.772 0.230557 10.228 0.529763 10.571L8.36796 19.571C8.60207 19.84 8.9864 20 9.39578 20H31.6034C32.2944 20 32.8553 19.552 32.8553 19V1C32.8553 0.448 32.2944 0 31.6034 0ZM13.8175 13.957C14.0616 14.152 14.3821 14.25 14.7026 14.25C15.0231 14.25 15.3436 14.152 15.5877 13.957L18.7713 11.414L21.9549 13.957C22.199 14.152 22.5195 14.25 22.84 14.25C23.1605 14.25 23.481 14.152 23.7251 13.957C24.2146 13.566 24.2146 12.934 23.7251 12.543L20.5415 10L23.7251 7.457C24.2146 7.066 24.2146 6.434 23.7251 6.043C23.2356 5.652 22.4444 5.652 21.9549 6.043L18.7713 8.586L15.5877 6.043C15.0982 5.652 14.307 5.652 13.8175 6.043C13.328 6.434 13.328 7.066 13.8175 7.457L17.0011 10L13.8175 12.543C13.328 12.934 13.328 13.566 13.8175 13.957Z" fill="black"/>
</svg>
