<svg width="36" height="37" viewBox="0 0 36 37" fill="none" xmlns="http://www.w3.org/2000/svg">
<g clip-path="url(#clip0_2360_240)">
<path d="M24.2835 27.6386L24.6617 27.5286L24.2469 26.9541L24.2835 27.6386ZM18.0738 27.5408L18.0006 28.0543C18.1889 28.0359 18.4206 28.1985 18.513 27.8342C18.5061 27.5503 18.2905 27.5347 18.0738 27.5408ZM21.0873 27.5286C21.0559 27.3888 20.9394 27.2857 20.648 27.382L20.7456 27.9075C20.985 27.8544 21.1081 27.7124 21.0873 27.5286ZM14.2797 27.0985L14.1632 27.5654C14.3504 27.5733 14.5697 27.7254 14.694 27.4487C14.7023 27.2753 14.7094 27.1026 14.2797 27.0985ZM20.831 28.2989L20.9165 28.837C21.1164 28.842 21.2987 28.7216 21.2459 28.4702C21.1949 28.2284 20.9923 28.2666 20.831 28.2989Z" fill="#005FAF"/>
<path d="M28.7653 8.35743C22.3051 5.05922 14.5899 5.15094 8.43466 8.21358C5.26066 13.8133 5.1596 21.6482 8.43466 28.5876C15.2159 32.0267 22.716 31.8002 28.813 28.7314C31.6784 22.8398 32.1516 15.7504 28.7653 8.35743ZM17.8548 25.0783L17.4718 25.0827C17.377 24.0222 17.1241 23.131 16.5815 22.449C14.0934 19.322 9.00741 21.6762 10.3143 16.3621C10.9938 13.6453 18.7447 12.043 17.8548 25.0783ZM10.3235 19.8297C10.8667 20.9379 14.2704 21.1194 15.452 21.9677C17.3262 23.3132 17.0572 25.0832 17.0572 25.0832H16.6151C15.7449 22.41 13.3026 24.5266 11.3464 23.8066C10.1182 23.3688 9.22652 21.4712 10.3235 19.8297ZM16.5248 28.544L16.7079 27.089L17.0372 27.1135L16.8908 28.7151C16.7431 29.4206 15.6934 29.3263 15.561 28.654L15.7318 26.9912L16.1221 27.0526L15.9514 28.4462C15.9731 28.9074 16.4347 28.8798 16.5248 28.544ZM14.7721 28.9413L14.3966 28.8505C14.4407 28.5395 14.8087 27.9068 14.0813 27.9068L13.8788 28.7337L13.4645 28.6559L13.9047 26.6707C14.9805 26.7881 15.0746 27.0882 15.0959 27.4103C15.0534 27.6601 14.9871 27.8345 14.7723 27.8772C15.0236 28.1059 14.7752 28.585 14.7721 28.9413ZM12.3873 26.7178C12.2839 26.8554 12.0767 27.3361 12.0467 27.7191C12.0148 28.1251 12.404 28.0397 12.5009 27.9922C12.5791 27.9542 12.6371 27.6281 12.6371 27.6281L12.3646 27.5371L12.4555 27.2642L13.0688 27.469L12.7736 28.4933L12.5238 28.4248L12.5465 28.2655C12.2407 28.4052 11.681 28.3004 11.6153 27.9469C11.5496 27.6629 11.7486 26.8017 12.0694 26.3993C12.3813 26.0081 13.1411 26.3905 13.1596 26.6269C13.178 26.8625 13.0852 27.1276 13.0852 27.1276L12.7992 27.0736C12.7992 27.0736 12.8167 26.9884 12.8417 26.8543C12.868 26.7122 12.4983 26.5699 12.3873 26.7178ZM17.9645 28.3849L17.8913 29.2653L17.5864 29.2532L17.6961 27.1623C18.4577 27.1782 18.8941 27.2838 18.8796 27.8227C18.8342 28.5589 18.2392 28.3934 17.9645 28.3849ZM18.7236 25.083H18.2134C18.1682 23.2724 18.5156 19.9607 17.5663 17.5234C16.8471 15.6759 15.0269 14.8447 14.6235 13.3523C13.9849 10.9899 15.0718 8.43387 18.7236 8.23703C21.8894 8.56277 22.8621 11.0122 22.3221 13.2927C21.3937 15.5728 20.465 15.2452 19.309 17.5165C18.3647 19.9513 18.7243 23.1411 18.7236 25.083ZM24.3815 28.4339L24.0277 28.5562L23.9178 26.4532L24.3326 26.3432L25.3574 28.0793L25.0768 28.2627L24.7351 27.7739L24.3447 27.9205L24.3815 28.4339ZM20.2539 25.083H19.8458C20.1821 20.433 26.0127 21.4432 26.5456 19.8297C27.4671 21.4294 27.1358 22.7782 26.1736 23.4696C23.7824 25.1885 21.4895 22.1976 20.2539 25.083ZM22.4174 27.4315L22.6005 28.3974C22.7144 28.6199 22.7917 28.5787 22.9664 28.5563C23.1691 28.4094 23.1268 28.2662 23.0885 28.0795L23.4423 28.0306C23.5345 28.7304 23.2025 28.8018 22.9543 28.8498C22.422 28.888 22.3176 28.7841 22.1735 28.0918C22.0896 27.4992 21.9447 26.8734 22.4419 26.7591C23.258 26.6342 23.2098 27.0023 23.2837 27.2603L22.9299 27.3217C22.8734 27.1 22.7921 27.0121 22.6126 27.0284C22.4492 27.1036 22.3821 27.2254 22.4174 27.4315ZM21.6733 28.4339C21.6903 28.7384 21.5871 28.9406 21.3926 29.0085L20.563 29.1797L20.2336 27.1623C20.4038 27.1346 21.2385 26.8281 21.4413 27.3826C21.5413 27.7212 21.4377 27.8427 21.3193 27.9938C21.5438 28.0661 21.6195 28.2412 21.6733 28.4339ZM19.5428 18.3103C21.3911 13.095 25.6202 14.0166 26.5582 16.3623C27.8432 21.069 23.7054 19.7782 21.0549 21.7084C20.0532 22.5815 19.526 23.5832 19.5182 25.1018H19.064C19.0368 22.0431 18.9874 19.8773 19.5428 18.3103Z" fill="#005FAF"/>
</g>
<defs>
<clipPath id="clip0_2360_240">
<rect width="27" height="27" fill="white" transform="translate(4.5 5)"/>
</clipPath>
</defs>
</svg>
