<svg width="360" height="587" viewBox="0 0 360 587" fill="none" xmlns="http://www.w3.org/2000/svg">
<rect width="360" height="587" fill="#1C1D23"/>
<mask id="mask0_2095_1468" style="mask-type:alpha" maskUnits="userSpaceOnUse" x="0" y="0" width="360" height="587">
<rect width="360" height="587" rx="14" fill="#1C1D23"/>
</mask>
<g mask="url(#mask0_2095_1468)">
<g filter="url(#filter0_f_2095_1468)">
<path d="M95.908 97.8866L95.8218 98.0798C91.2278 108.407 88.5749 119.496 88.9666 128.874L92.5492 165.708C95.4801 184.334 95.2847 214.783 92.1176 233.374L88.0754 270.165C87.0439 288.966 98.1917 314.808 112.843 327.581L142.962 351.24C158.984 362.451 181.658 384.107 193.344 399.369L218.038 428.09C231.396 442.069 258.63 452.903 278.558 452.158L317.572 448.781C337.301 446.009 369.555 446.195 389.246 449.183L428.223 453.003C448.138 453.977 475.511 443.454 489.042 429.627L514.103 401.194C525.982 386.067 548.924 364.665 565.088 353.634L595.502 330.325C602.817 324.094 609.316 314.66 613.926 304.444L614.252 303.715C618.774 293.463 621.384 282.485 620.994 273.186L617.412 236.355C614.481 217.73 614.674 187.285 617.843 168.69L621.888 131.905C622.916 113.099 611.77 87.2619 597.121 74.4837L567 50.8288C550.979 39.613 528.308 17.9557 516.625 2.69177L491.927 -26.0189C478.57 -40.0036 451.335 -50.8349 431.406 -50.087L392.388 -46.7094C372.656 -43.9435 340.404 -44.1299 320.713 -47.117L281.742 -50.9379C261.824 -51.9083 234.454 -41.3904 220.924 -27.5599L195.866 0.87247C183.986 16.003 161.044 37.4014 144.879 48.4327L114.459 71.7451C107.076 78.0295 100.525 87.5694 95.908 97.8866Z" fill="#383A43"/>
</g>
<g filter="url(#filter1_f_2095_1468)">
<path d="M-145.725 154.69L-145.802 154.831C-149.942 162.401 -152.661 170.659 -152.962 177.793L-152.599 205.929C-151.567 220.219 -153.66 243.298 -157.246 257.215L-162.656 284.884C-164.638 299.082 -157.842 319.313 -147.557 329.833L-126.247 349.489C-114.824 358.903 -99.0283 376.618 -91.1478 388.854L-74.2713 412.04C-65.0437 423.405 -45.1002 433.167 -29.9545 433.74L-0.180194 433.398C14.9447 432.418 39.3704 434.398 54.0992 437.787L83.3841 442.905C98.4135 444.778 119.823 438.355 130.959 428.638L151.759 408.505C161.725 397.711 180.474 382.788 193.425 375.344L217.956 359.4C223.899 355.092 229.423 348.309 233.569 340.824L233.863 340.289C237.943 332.772 240.623 324.595 240.921 317.522L240.559 289.39C239.528 275.099 241.616 252.023 245.204 238.103L250.617 210.439C252.598 196.237 245.802 176.01 235.517 165.486L214.208 145.833C202.785 136.416 186.989 118.7 179.112 106.462L162.232 83.2805C153.005 71.9165 133.062 62.1513 117.915 61.5823L88.1374 61.9216C73.0126 62.8957 48.5868 60.9182 33.8581 57.5316L4.57742 52.4141C-10.4515 50.544 -31.8611 56.9618 -42.9946 66.6792L-63.7957 86.8132C-73.7616 97.6106 -92.5098 112.53 -105.461 119.975L-129.998 135.92C-135.995 140.268 -141.567 147.129 -145.725 154.69Z" fill="#31333A"/>
</g>
<g filter="url(#filter2_f_2095_1468)">
<path fill-rule="evenodd" clip-rule="evenodd" d="M189.804 357.541L161.192 335.047C147.274 322.9 136.683 298.331 137.663 280.455L141.503 245.474C144.512 227.798 144.697 198.847 141.913 181.138L138.51 146.115C138.136 137.199 140.658 126.655 145.022 116.836L145.105 116.653C149.491 106.843 155.713 97.7717 162.726 91.7966L166.387 88.9885L179.11 106.462C186.987 118.702 202.783 136.417 214.205 145.834L235.514 165.486C245.8 176.011 252.595 196.238 250.614 210.44L245.201 238.104C241.614 252.021 239.525 275.099 240.556 289.39L240.919 317.523C240.621 324.596 237.941 332.773 233.86 340.289L233.568 340.824C229.42 348.309 223.897 355.092 217.954 359.4L203.824 368.581C198.901 364.35 194.101 360.55 189.804 357.541Z" fill="#D819B9"/>
</g>
</g>
<circle opacity="0.02" cx="180" cy="200" r="160" fill="white"/>
<circle opacity="0.04" cx="180" cy="200" r="100" fill="white"/>
<circle opacity="0.08" cx="180" cy="200" r="60" fill="white"/>
<circle opacity="0.2" cx="73" cy="214" r="7" fill="white"/>
<circle opacity="0.1" cx="35" cy="152" r="4" fill="white"/>
<circle opacity="0.2" cx="285.5" cy="247.5" r="4.5" fill="white"/>
<circle opacity="0.1" cx="288.5" cy="137.5" r="7.5" fill="white"/>
<circle opacity="0.2" cx="109.5" cy="85.5" r="4.5" fill="white"/>
<circle opacity="0.1" cx="230" cy="103" r="4" fill="white"/>
<path opacity="0.2" d="M88 285V269L104.5 276L88 285Z" fill="white"/>
<path opacity="0.3" d="M166.5 311L171.5 300.5L176 311H166.5Z" fill="white"/>
<path opacity="0.3" d="M256.5 305L251 295.5H267L256.5 305Z" fill="white"/>
<path opacity="0.2" d="M260 216L250 200.5L275 196L260 216Z" fill="white"/>
<path opacity="0.1" d="M155 92.5L163 78.5L179.5 96.5L155 92.5Z" fill="white"/>
<path opacity="0.3" d="M96 135.5L78 129V122.5L96 129V135.5Z" fill="white"/>
<path opacity="0.1" d="M298 180L303.413 174L329 188.5L324.079 196L298 180Z" fill="white"/>
<path opacity="0.1" d="M124.5 209L118 203.5L141.5 190.5L148 195.5L124.5 209Z" fill="white"/>
<rect opacity="0.3" x="260.768" y="88.7417" width="4" height="26" transform="rotate(-30 260.768 88.7417)" fill="white"/>
<defs>
<filter id="filter0_f_2095_1468" x="-31.9908" y="-171" width="773.945" height="744.065" filterUnits="userSpaceOnUse" color-interpolation-filters="sRGB">
<feFlood flood-opacity="0" result="BackgroundImageFix"/>
<feBlend mode="normal" in="SourceGraphic" in2="BackgroundImageFix" result="shape"/>
<feGaussianBlur stdDeviation="60" result="effect1_foregroundBlur_2095_1468"/>
</filter>
<filter id="filter1_f_2095_1468" x="-283" y="-67.9099" width="653.96" height="631.14" filterUnits="userSpaceOnUse" color-interpolation-filters="sRGB">
<feFlood flood-opacity="0" result="BackgroundImageFix"/>
<feBlend mode="normal" in="SourceGraphic" in2="BackgroundImageFix" result="shape"/>
<feGaussianBlur stdDeviation="60" result="effect1_foregroundBlur_2095_1468"/>
</filter>
<filter id="filter2_f_2095_1468" x="17.6" y="-31.0115" width="353.357" height="519.593" filterUnits="userSpaceOnUse" color-interpolation-filters="sRGB">
<feFlood flood-opacity="0" result="BackgroundImageFix"/>
<feBlend mode="normal" in="SourceGraphic" in2="BackgroundImageFix" result="shape"/>
<feGaussianBlur stdDeviation="60" result="effect1_foregroundBlur_2095_1468"/>
</filter>
</defs>
</svg>
