<svg width="126" height="123" viewBox="0 0 126 123" fill="none" xmlns="http://www.w3.org/2000/svg">
<g opacity="0.5" clip-path="url(#clip0_2002_1578)">
<path d="M79.99 27.6623H46.0385C45.2648 27.6632 44.523 27.971 43.9759 28.5181C43.4289 29.0653 43.1211 29.807 43.1202 30.5808V106.043L42.731 106.162L34.4022 108.713C34.0075 108.833 33.5811 108.792 33.2167 108.598C32.8523 108.405 32.5797 108.074 32.4587 107.68L7.68413 26.7498C7.56356 26.355 7.60465 25.9285 7.79837 25.5641C7.99209 25.1996 8.32258 24.9269 8.71722 24.8061L21.552 20.8758L58.7603 9.48587L71.595 5.55562C71.7903 5.4955 71.9956 5.47449 72.199 5.4938C72.4025 5.5131 72.6001 5.57234 72.7807 5.66812C72.9612 5.7639 73.1211 5.89435 73.2511 6.05199C73.3812 6.20963 73.4789 6.39138 73.5386 6.58682L79.8713 27.2732L79.99 27.6623Z" fill="#F2F2F2"/>
<path d="M87.3986 27.2732L79.7663 2.34145C79.6393 1.92604 79.4317 1.53972 79.1554 1.20458C78.879 0.86943 78.5394 0.592023 78.1558 0.388206C77.7722 0.184389 77.3523 0.0581554 76.9199 0.0167226C76.4875 -0.0247101 76.0512 0.0194702 75.6359 0.146735L57.5911 5.67049L20.3847 17.0624L2.33982 22.5881C1.50155 22.8455 0.799655 23.425 0.388202 24.1994C-0.0232522 24.9739 -0.110651 25.8799 0.145194 26.7187L26.231 111.925C26.4388 112.602 26.8582 113.195 27.4275 113.616C27.9969 114.038 28.6862 114.265 29.3945 114.266C29.7222 114.266 30.0482 114.217 30.3613 114.12L42.7311 110.334L43.1202 110.213V109.807L42.7311 109.925L30.2466 113.748C29.5067 113.974 28.7075 113.897 28.0243 113.534C27.3412 113.171 26.8299 112.552 26.6026 111.812L0.518816 26.6039C0.406187 26.2375 0.366933 25.8525 0.4033 25.471C0.439667 25.0894 0.550938 24.7187 0.730749 24.3802C0.910559 24.0417 1.15538 23.742 1.45118 23.4982C1.74697 23.2545 2.08795 23.0715 2.45457 22.9597L20.4994 17.434L57.7059 6.04406L75.7508 0.518361C76.0288 0.433491 76.3179 0.390217 76.6087 0.389946C77.2326 0.391347 77.8398 0.592521 78.3411 0.964C78.8425 1.33548 79.2117 1.85775 79.3947 2.4543L86.992 27.2732L87.1127 27.6624H87.5174L87.3986 27.2732Z" fill="#727272"/>
<path d="M20.1648 15.2987L20.1648 15.2988L22.6706 23.484C22.6706 23.4841 22.6706 23.4841 22.6706 23.4842C22.7494 23.7404 22.9082 23.9646 23.1238 24.124C23.3393 24.2833 23.6001 24.3694 23.8681 24.3697C23.9918 24.3696 24.1147 24.3511 24.2329 24.3148L24.2332 24.3147L58.4623 13.8348L20.1648 15.2987ZM20.1648 15.2987C20.1167 15.1416 20.1 14.9766 20.1157 14.8131C20.1314 14.6495 20.1791 14.4906 20.2562 14.3456C20.3332 14.2005 20.4381 14.072 20.5649 13.9674C20.6916 13.8629 20.8377 13.7844 20.9948 13.7363L20.9948 13.7363M20.1648 15.2987L20.9948 13.7363M20.9948 13.7363L55.224 3.2563M20.9948 13.7363L55.224 3.2563M55.224 3.2563C55.5413 3.15945 55.8842 3.19248 56.1772 3.34814C56.4702 3.50381 56.6896 3.76939 56.787 4.08661L59.2926 12.2715C59.3894 12.5889 59.3564 12.9318 59.2007 13.2248L59.6423 13.4594L59.2007 13.2248C59.0451 13.5177 58.7798 13.737 58.4629 13.8346L55.224 3.2563Z" fill="#F2F2F2" stroke="#727272"/>
<path d="M36.9951 8.74669C39.1441 8.74669 40.8862 7.00448 40.8862 4.85535C40.8862 2.70623 39.1441 0.96402 36.9951 0.96402C34.8461 0.96402 33.104 2.70623 33.104 4.85535C33.104 7.00448 34.8461 8.74669 36.9951 8.74669Z" fill="#727272"/>
<path d="M36.9951 7.31946C38.3559 7.31946 39.459 6.21624 39.459 4.85535C39.459 3.49446 38.3559 2.39124 36.9951 2.39124C35.6343 2.39124 34.5311 3.49446 34.5311 4.85535C34.5311 6.21624 35.6343 7.31946 36.9951 7.31946Z" fill="white"/>
<path d="M117.245 113.272H51.486C51.0475 113.271 50.6272 113.097 50.3172 112.787C50.0072 112.477 49.8328 112.056 49.8323 111.618V32.8183C49.8328 32.3798 50.0072 31.9595 50.3172 31.6494C50.6272 31.3394 51.0475 31.165 51.486 31.1645H117.245C117.684 31.165 118.104 31.3394 118.414 31.6494C118.724 31.9595 118.898 32.3798 118.899 32.8183V111.618C118.898 112.056 118.724 112.477 118.414 112.787C118.104 113.097 117.684 113.271 117.245 113.272Z" fill="#E6E6E6"/>
<path d="M86.992 27.2732H46.0384C45.1616 27.2744 44.3211 27.6233 43.7011 28.2433C43.0811 28.8634 42.7323 29.7039 42.731 30.5808V109.925L43.1201 109.806V30.5808C43.1211 29.8071 43.4288 29.0653 43.9759 28.5181C44.523 27.971 45.2647 27.6632 46.0384 27.6623H87.1126L86.992 27.2732ZM122.693 27.2732H46.0384C45.1616 27.2744 44.3211 27.6233 43.7011 28.2433C43.0811 28.8634 42.7323 29.7039 42.731 30.5808V119.692C42.7323 120.569 43.0811 121.41 43.7011 122.03C44.3211 122.65 45.1616 122.999 46.0384 123H122.693C123.569 122.999 124.41 122.65 125.03 122.03C125.65 121.41 125.999 120.569 126 119.692V30.5808C125.999 29.7039 125.65 28.8634 125.03 28.2433C124.41 27.6233 123.569 27.2744 122.693 27.2732ZM125.611 119.692C125.61 120.466 125.302 121.208 124.755 121.755C124.208 122.302 123.466 122.61 122.693 122.611H46.0384C45.2647 122.61 44.523 122.302 43.9759 121.755C43.4288 121.208 43.1211 120.466 43.1201 119.692V30.5808C43.1211 29.8071 43.4288 29.0653 43.9759 28.5181C44.523 27.971 45.2647 27.6632 46.0384 27.6623H122.693C123.466 27.6632 124.208 27.971 124.755 28.5181C125.302 29.0653 125.61 29.8071 125.611 30.5808V119.692Z" fill="#727272"/>
<path d="M102.264 35.3341H66.4672C66.1354 35.3337 65.8173 35.2017 65.5826 34.9671C65.3481 34.7325 65.2161 34.4145 65.2156 34.0827V25.5224C65.2161 25.1906 65.3481 24.8726 65.5826 24.638C65.8172 24.4034 66.1352 24.2714 66.4669 24.271H102.264C102.596 24.2714 102.914 24.4034 103.148 24.638C103.383 24.8726 103.515 25.1908 103.515 25.5226V34.0824C103.515 34.4143 103.383 34.7325 103.148 34.9671C102.914 35.2017 102.596 35.3337 102.264 35.3341Z" fill="#F2F2F2" stroke="#727272"/>
<path d="M84.3655 24.3547C86.5145 24.3547 88.2566 22.6125 88.2566 20.4633C88.2566 18.3142 86.5145 16.572 84.3655 16.572C82.2165 16.572 80.4744 18.3142 80.4744 20.4633C80.4744 22.6125 82.2165 24.3547 84.3655 24.3547Z" fill="#727272"/>
<path d="M84.3655 22.8335C85.6744 22.8335 86.7355 21.7723 86.7355 20.4633C86.7355 19.1543 85.6744 18.0931 84.3655 18.0931C83.0566 18.0931 81.9955 19.1543 81.9955 20.4633C81.9955 21.7723 83.0566 22.8335 84.3655 22.8335Z" fill="white"/>
</g>
<defs>
<clipPath id="clip0_2002_1578">
<rect width="126" height="123" fill="white"/>
</clipPath>
</defs>
</svg>
