<svg width="36" height="37" viewBox="0 0 36 37" fill="none" xmlns="http://www.w3.org/2000/svg">
<path fill-rule="evenodd" clip-rule="evenodd" d="M6.1865 24.0056C6.43516 27.4746 8.67315 30.137 12.8176 30.379C16.7962 30.5403 20.692 30.5403 24.6706 30.379C28.3177 30.137 31.053 27.4746 31.3017 24.0056C31.4675 22.2307 31.5504 20.4558 31.4675 18.6809C30.5557 13.8403 26.4113 13.679 26.0797 13.679H25.9968H12.0716C11.5742 13.679 11.1598 13.2756 11.1598 12.7916C11.1598 12.3075 11.5742 11.9848 12.0716 11.9848H26.0797C25.914 8.75774 22.2669 8.11233 20.5262 8.03165H19.6144C17.3764 7.95097 15.0556 8.03165 12.8176 8.193C8.59026 8.51571 6.43516 11.0167 6.1865 14.5664C5.93783 17.7128 5.93783 20.8592 6.1865 24.0056ZM27.1573 22.15V23.3601C27.1573 23.7635 26.8257 24.0862 26.3284 24.0862C25.914 24.0862 25.5824 23.7635 25.5824 23.3601V22.15C25.168 21.908 24.9193 21.5853 24.9193 21.1012C24.9193 20.4558 25.5824 19.8911 26.3284 19.8911C27.0744 19.8911 27.7375 20.4558 27.7375 21.1012C27.7375 21.5853 27.4888 21.908 27.1573 22.15Z" fill="#0284C7"/>
</svg>
