<svg width="36" height="36" viewBox="0 0 36 36" fill="none" xmlns="http://www.w3.org/2000/svg">
<path d="M13.3411 19.7018L13.3411 6.00004L9.82459 6.00003C9.18866 6.00003 8.70227 6.47794 8.70227 7.06492C8.70228 10.2986 8.66491 19.8121 8.66492 22.971C8.66492 23.5588 9.15131 24.073 9.74986 24.073C12.1814 24.073 19.1768 24.073 20.1864 24.073L20.1864 19.7018L13.3411 19.7018Z" fill="white"/>
<path d="M22.5059 28.5913C22.9179 28.5913 26.06 28.5913 27.1078 28.5913C27.1078 28.5913 27.1078 19.665 27.1078 19.5181C25.6111 19.5181 24.0407 19.5181 22.5058 19.5181C22.5058 22.5302 22.5059 25.5423 22.5059 28.5913Z" fill="white"/>
<path d="M15.5857 6C15.5857 6.07402 15.5857 10.518 15.5857 10.518C17.6433 10.518 20.2616 10.518 22.506 10.518C22.506 13.6412 22.506 17.2775 22.506 17.2775C23.5538 17.2775 26.6959 17.2775 27.1079 17.2775L27.1079 7.10255C27.1079 6.51427 26.6209 6.03637 26.0232 6C23.7789 6 18.466 6 15.5857 6Z" fill="white"/>
<path d="M15.5857 12.7218C15.5857 14.2282 15.5858 15.7346 15.5858 17.3138C15.9599 17.3138 16.3714 17.3138 16.7455 17.3138C17.7934 17.3138 19.1019 17.3138 20.1497 17.3138C20.1497 17.3138 20.1497 12.7958 20.1497 12.7218C18.653 12.7218 17.1196 12.7218 15.5857 12.7218ZM18.8031 15.9178C18.3542 15.9178 17.8303 15.9178 17.4183 15.9178C17.2692 15.9178 17.1196 15.9178 16.9325 15.9178C16.9325 15.2931 16.9325 14.7061 16.9325 14.0815C17.5683 14.0815 18.1673 14.0815 18.8031 14.0815C18.8031 14.1178 18.8031 15.9178 18.8031 15.9178Z" fill="white"/>
</svg>
