<svg width="36" height="37" viewBox="0 0 36 37" fill="none" xmlns="http://www.w3.org/2000/svg">
<path d="M13.3411 20.2018L13.3411 6.50005L9.82459 6.50005C9.18866 6.50005 8.70227 6.97795 8.70227 7.56494C8.70227 10.7986 8.66491 20.3121 8.66491 23.471C8.66492 24.0588 9.15131 24.5731 9.74986 24.5731C12.1814 24.5731 19.1768 24.5731 20.1864 24.5731L20.1864 20.2018L13.3411 20.2018Z" fill="black"/>
<path d="M22.5059 29.0912C22.9179 29.0912 26.06 29.0912 27.1078 29.0912C27.1078 29.0912 27.1078 20.165 27.1078 20.0181C25.6111 20.0181 24.0407 20.0181 22.5058 20.0181C22.5058 23.0302 22.5059 26.0423 22.5059 29.0912Z" fill="black"/>
<path d="M15.5857 6.50001C15.5857 6.57404 15.5857 11.018 15.5857 11.018C17.6433 11.018 20.2615 11.018 22.5059 11.018C22.5059 14.1413 22.5059 17.7775 22.5059 17.7775C23.5537 17.7775 26.6959 17.7775 27.1079 17.7775L27.1079 7.60257C27.1079 7.01428 26.6208 6.53638 26.0232 6.50002C23.7788 6.50002 18.466 6.50001 15.5857 6.50001Z" fill="black"/>
<path d="M15.5857 13.2218C15.5857 14.7282 15.5857 16.2346 15.5857 17.8138C15.9598 17.8138 16.3713 17.8138 16.7454 17.8138C17.7934 17.8138 19.1018 17.8138 20.1496 17.8138C20.1496 17.8138 20.1496 13.2958 20.1496 13.2218C18.6529 13.2218 17.1195 13.2218 15.5857 13.2218ZM18.803 16.4177C18.3541 16.4177 17.8302 16.4177 17.4182 16.4177C17.2692 16.4177 17.1195 16.4177 16.9325 16.4177C16.9325 15.7931 16.9325 15.2061 16.9324 14.5814C17.5682 14.5814 18.1672 14.5814 18.803 14.5814C18.803 14.6178 18.803 16.4177 18.803 16.4177Z" fill="black"/>
</svg>
